<?xml version="1.0" standalone="no"?>
<!DOCTYPE svg PUBLIC "-//W3C//DTD SVG 20010904//EN"
 "http://www.w3.org/TR/2001/REC-SVG-20010904/DTD/svg10.dtd">
<svg version="1.0" xmlns="http://www.w3.org/2000/svg"
 width="32.000000pt" height="32.000000pt" viewBox="0 0 32.000000 32.000000"
 preserveAspectRatio="xMidYMid meet">

<g transform="translate(0.000000,32.000000) scale(0.100000,-0.100000)"
fill="#000000" stroke="none">
<path d="M89 231 c-64 -65 -20 -171 71 -171 91 0 135 106 71 171 -41 41 -101
41 -142 0z m68 -43 l33 -32 0 32 c0 22 5 32 15 32 12 0 15 -14 15 -62 l0 -62
-45 44 -45 44 0 -42 c0 -31 -4 -42 -15 -42 -12 0 -15 13 -15 60 0 70 9 74 57
28z"/>
</g>
</svg>
